<?xml version="1.0" encoding="UTF-8"?>
<svg xmlns="http://www.w3.org/2000/svg" version="1.1" viewBox="0 0 1024 1024">
  <!-- Generator: Adobe Illustrator 29.3.0, SVG Export Plug-In . SVG Version: 2.1.0 Build 146)  -->
  <defs>
    <style>
      .st0 {
        fill: #4635b1;
      }

      .st1 {
        fill: #fff;
      }
    </style>
  </defs>
  <g id="Calque_2">
    <rect class="st0" width="1024" height="1024"/>
  </g>
  <g id="Calque_1">
    <path class="st1" d="M333.76,874.77c39.72-34.92,85.05-82.93,68.58-140.45-19.66-68.68-86.5-114.13-102.59-193.12-32.92-161.55,144.66-303.82,274.49-363.25,50.97-23.33,144.2-62.04,152.87,25.42,7.63,76.93-23.6,143.85-84.31,189.65-71.73,54.1-238.22,100.65-178.48,225.07,45.58,94.95,97.1-50.43,137.18-71.18,22.34,10.04,14.43,48.17,10.9,68.01-14.12,79.44-83.12,169.75-148.66,214.87-36.87,25.38-84.33,47.89-129.97,44.98Z"/>
  </g>
</svg>