<?xml version="1.0" encoding="UTF-8"?>
<svg xmlns="http://www.w3.org/2000/svg" version="1.1" viewBox="0 0 1024 1024">
  <!-- Generator: Adobe Illustrator 29.3.0, SVG Export Plug-In . SVG Version: 2.1.0 Build 146)  -->
  <defs>
    <style>
      .st0 {
        fill: #4635b1;
      }

      .st1 {
        fill: #fff;
      }
    </style>
  </defs>
  <g id="Calque_2">
    <rect class="st0" width="1024" height="1024"/>
  </g>
  <g id="Calque_1">
    <g>
      <path class="st1" d="M187,633.99c14.64-12.87,31.35-30.57,25.28-51.77-7.25-25.32-31.88-42.07-37.82-71.18-12.14-59.55,53.32-111.99,101.18-133.89,18.79-8.6,53.15-22.87,56.35,9.37,2.81,28.36-8.7,53.02-31.08,69.9-26.44,19.94-87.81,37.1-65.79,82.96,16.8,35,35.79-18.59,50.56-26.24,8.23,3.7,5.32,17.76,4.02,25.07-5.21,29.28-30.64,62.57-54.8,79.2-13.59,9.36-31.08,17.65-47.91,16.58Z"/>
      <polygon class="st1" points="484 419 484 444.5 482.5 446 416 446 416 487 472.5 487 474 488.5 474 511.5 472.5 513 416 513 416 577 385 577 385 419 484 419"/>
      <path class="st1" d="M516,462l30.99,80,28.51-80h28c2.54,1.67.47,5.21-.33,7.67-13.87,42.72-37.36,86.52-53,129-9.45,19.07-32.05,30.15-52.73,23.39-.84-1.19-.58-6.71-.48-8.6.14-2.71.73-12.03,1.24-13.75,1.25-4.23,7.98-1.39,12.19-1.82,11.29-1.15,21.25-12.79,19.52-24.3l-42.69-104.31-1.22-7.28h30Z"/>
      <path class="st1" d="M844,577h-27.5l-1.5-1.5v-72c0-1.37-3.15-8.29-4.17-9.83-8-12.13-28.35-11.22-36.83-.16-2.79,3.64-6,12.59-6,17v66.5h-27.5l-1.5-1.5v-112l1.5-1.5h25.5l1.01,14c17.83-23.77,60.45-23.43,72.75,5.74,1.19,2.82,4.24,12.2,4.24,14.76v80.5Z"/>
      <path class="st1" d="M690,577v-69.5c0-1.25-1.93-8.82-2.53-10.47-6.02-16.58-32.23-15.51-40.3-.35-.53,1-3.18,7.4-3.18,7.82v71l-1.5,1.5h-26l-1.5-1.5v-112l1.5-1.5h24c3.2,1.59.3,13.63,2.01,14.01l10.15-9.84c29.75-18.28,66.34-.81,66.34,35.34v74l-1.5,1.5h-27.5Z"/>
    </g>
  </g>
</svg>