<svg xmlns="http://www.w3.org/2000/svg" viewBox="0 0 512 512"><path d="M256 0C114.615 0 0 114.615 0 256s114.615 256 256 256 256-114.615 256-256S397.385 0 256 0z" fill="#0066a4"/><path d="M256 64c-106.039 0-192 85.961-192 192s85.961 192 192 192 192-85.961 192-192S362.039 64 256 64zm0 352c-88.366 0-160-71.634-160-160S167.634 96 256 96s160 71.634 160 160-71.634 160-160 160z" fill="#fff"/><path d="M256 128c-70.692 0-128 57.308-128 128s57.308 128 128 128 128-57.308 128-128-57.308-128-128-128zm0 224c-53.019 0-96-42.981-96-96s42.981-96 96-96 96 42.981 96 96-42.981 96-96 96z" fill="#fff"/><path d="M256 192c-35.346 0-64 28.654-64 64s28.654 64 64 64 64-28.654 64-64-28.654-64-64-64z" fill="#fff"/></svg>
