<?xml version="1.0" encoding="UTF-8"?>
<svg id="Calque_1" xmlns="http://www.w3.org/2000/svg" version="1.1" viewBox="0 0 130 100">
  <!-- Generator: Adobe Illustrator 29.0.0, SVG Export Plug-In . SVG Version: 2.1.0 Build 186)  -->
  <path d="M88.4,55.2h-24.1c-2.9,0-5.1-2.4-5.1-5.2s2.3-5.1,5.1-5.1h24.1l-.6-7.9c-7.9-14.3-31-15.6-40.5-2.2v-7.7H4v15.7h11.8v30.2h19.6v-30.2h7.7c-8.3,27.5,29.7,44.4,44.6,20.2,0,0,.6-7.8.6-7.8Z"/>
  <polygon points="108.3 56.4 108.3 27 87.8 27 87.8 37 99.9 49.9 87.8 62.9 87.8 72.9 126 72.9 126 56.4 108.3 56.4"/>
</svg>