<?xml version="1.0" encoding="UTF-8"?>
<svg id="Calque_1" xmlns="http://www.w3.org/2000/svg" version="1.1" viewBox="0 0 1024 1024">
  <!-- Generator: Adobe Illustrator 29.3.0, SVG Export Plug-In . SVG Version: 2.1.0 Build 146)  -->
  <defs>
    <style>
      .st0 {
        fill: #fff;
      }
    </style>
  </defs>
  <path class="st0" d="M284.92,974.17c50.6-44.49,108.35-105.65,87.38-178.93-25.04-87.5-110.2-145.41-130.7-246.03-41.94-205.82,184.3-387.06,349.69-462.78,64.94-29.73,183.71-79.04,194.76,32.38,9.72,98-30.07,183.27-107.41,241.61-91.38,68.92-303.49,128.23-227.39,286.74,58.07,120.97,123.71-64.25,174.76-90.69,28.46,12.79,18.38,61.37,13.89,86.64-17.99,101.21-105.89,216.26-189.39,273.75-46.97,32.34-107.44,61.01-165.58,57.31Z"/>
</svg>