<?xml version="1.0" encoding="UTF-8"?>
<svg id="Calque_1" xmlns="http://www.w3.org/2000/svg" version="1.1" viewBox="0 0 798.06 328.27">
  <!-- Generator: Adobe Illustrator 29.3.0, SVG Export Plug-In . SVG Version: 2.1.0 Build 146)  -->
  <defs>
    <style>
      .st0 {
        fill: #4635b1;
      }
    </style>
  </defs>
  <path class="st0" d="M30.66,318.83c16.7-14.68,35.76-34.87,28.84-59.06-8.26-28.88-36.37-47.99-43.14-81.2C2.52,110.64,77.19,50.82,131.78,25.83c21.43-9.81,60.63-26.09,64.28,10.69,3.21,32.35-9.92,60.49-35.45,79.74-30.16,22.75-100.17,42.32-75.05,94.64,19.17,39.93,40.83-21.21,57.68-29.93,9.39,4.22,6.07,20.26,4.58,28.6-5.94,33.41-34.95,71.38-62.51,90.35-15.5,10.67-35.46,20.14-54.65,18.92Z"/>
  <polygon class="st0" points="369.47 73.58 369.47 102.67 367.76 104.38 291.9 104.38 291.9 151.15 356.35 151.15 358.06 152.86 358.06 179.1 356.35 180.81 291.9 180.81 291.9 253.82 256.53 253.82 256.53 73.58 369.47 73.58"/>
  <path class="st0" d="M405.97,122.63l35.35,91.26,32.52-91.26h31.94c2.9,1.91.53,5.95-.38,8.75-15.83,48.73-42.62,98.7-60.46,147.15-10.78,21.76-36.56,34.39-60.15,26.68-.95-1.36-.66-7.66-.55-9.81.16-3.09.83-13.72,1.41-15.68,1.43-4.83,9.11-1.59,13.9-2.07,12.88-1.31,24.24-14.59,22.27-27.72l-48.7-118.99-1.4-8.3h34.22Z"/>
  <path class="st0" d="M780.14,253.82h-31.37l-1.71-1.71v-82.13c0-1.56-3.6-9.46-4.75-11.22-9.13-13.84-32.34-12.8-42.01-.19-3.18,4.15-6.85,14.36-6.85,19.39v75.86h-31.37l-1.71-1.71v-127.76l1.71-1.71h29.09l1.15,15.97c20.34-27.11,68.96-26.73,82.99,6.55,1.36,3.22,4.83,13.92,4.83,16.84v91.83Z"/>
  <path class="st0" d="M604.46,253.82v-79.28c0-1.43-2.2-10.06-2.88-11.95-6.86-18.92-36.77-17.7-45.97-.4-.61,1.15-3.62,8.44-3.62,8.92v80.99l-1.71,1.71h-29.66l-1.71-1.71v-127.76l1.71-1.71h27.38c3.65,1.81.34,15.54,2.29,15.98l11.58-11.23c33.94-20.85,75.67-.92,75.67,40.31v84.42l-1.71,1.71h-31.37Z"/>
</svg>